{
    "asset" : {
        "generator" : "Khronos glTF Blender I/O v0.9.36",
        "version" : "2.0"
    },
    "scene" : 0,
    "scenes" : [
        {
            "name" : "Scene",
            "nodes" : [
                2
            ]
        }
    ],
    "nodes" : [
        {
            "mesh" : 0,
            "name" : "tamina_collider"
        },
        {
            "children" : [
                0
            ],
            "name" : "tamina_collision"
        },
        {
            "children" : [
                1
            ],
            "name" : "tamina_collider.gltf",
            "rotation" : [
                0.7071068286895752,
                0,
                0,
                0.7071067094802856
            ],
            "scale" : [
                10,
                10.000000953674316,
                10.000000953674316
            ]
        }
    ],
    "materials" : [
        {
            "name" : "lambert1",
            "pbrMetallicRoughness" : {
                "baseColorFactor" : [
                    0.5,
                    0.5,
                    0.5,
                    1
                ],
                "metallicFactor" : 0,
                "roughnessFactor" : 0.4500536322593689
            }
        }
    ],
    "meshes" : [
        {
            "name" : "Mesh_0",
            "primitives" : [
                {
                    "attributes" : {
                        "POSITION" : 0,
                        "NORMAL" : 1,
                        "TEXCOORD_0" : 2
                    },
                    "indices" : 3,
                    "material" : 0
                }
            ]
        }
    ],
    "accessors" : [
        {
            "bufferView" : 0,
            "componentType" : 5126,
            "count" : 1089,
            "max" : [
                2.1551992893218994,
                3.8631231784820557,
                0.868015706539154
            ],
            "min" : [
                0.039775390177965164,
                -2.287832021713257,
                0.31211596727371216
            ],
            "type" : "VEC3"
        },
        {
            "bufferView" : 1,
            "componentType" : 5126,
            "count" : 1089,
            "type" : "VEC3"
        },
        {
            "bufferView" : 2,
            "componentType" : 5126,
            "count" : 1089,
            "type" : "VEC2"
        },
        {
            "bufferView" : 3,
            "componentType" : 5123,
            "count" : 1632,
            "type" : "SCALAR"
        }
    ],
    "bufferViews" : [
        {
            "buffer" : 0,
            "byteLength" : 13068,
            "byteOffset" : 0
        },
        {
            "buffer" : 0,
            "byteLength" : 13068,
            "byteOffset" : 13068
        },
        {
            "buffer" : 0,
            "byteLength" : 8712,
            "byteOffset" : 26136
        },
        {
            "buffer" : 0,
            "byteLength" : 3264,
            "byteOffset" : 34848
        }
    ],
    "buffers" : [
        {
            "byteLength" : 38112,
            "uri" : "data:application/octet-stream;base64,"
        }
    ]
}
