<svg width="26" height="21" viewBox="0 0 26 21" fill="none" xmlns="http://www.w3.org/2000/svg">
<path d="M23.6791 8.78129C23.5789 8.76503 23.4775 8.75752 23.3761 8.75884H6.10113L6.47782 8.58364C6.84601 8.40937 7.18098 8.17219 7.46771 7.88283L12.312 3.03851C12.95 2.42946 13.0572 1.4497 12.5661 0.717088C11.9944 -0.0635993 10.8982 -0.233107 10.1174 0.338543C10.0543 0.384753 9.99438 0.435123 9.93805 0.489326L1.17797 9.2494C0.493371 9.93324 0.492768 11.0425 1.1766 11.7271C1.17704 11.7276 1.17753 11.7281 1.17797 11.7285L9.93805 20.4886C10.6232 21.1718 11.7325 21.1703 12.4158 20.4851C12.4695 20.4312 12.5198 20.3738 12.5661 20.3134C13.0572 19.5808 12.95 18.601 12.312 17.992L7.47647 13.1389C7.21941 12.8815 6.92387 12.6658 6.60046 12.4994L6.07485 12.2629H23.2796C24.1746 12.2961 24.9599 11.6709 25.128 10.7912C25.2829 9.83605 24.6342 8.93623 23.6791 8.78129Z" fill="white"/>
</svg>
