<svg width="18" height="13" viewBox="0 0 18 13" fill="none" xmlns="http://www.w3.org/2000/svg">
<path d="M17.0809 3.37626C16.741 3.03539 16.1743 3.03539 15.8344 3.37626L14.3485 4.866L12.8627 3.37626C12.5227 3.03539 11.9561 3.03539 11.6161 3.37626C11.2762 3.71713 11.2762 4.28526 11.6161 4.62613L13.1021 6.11587L11.6161 7.60561C11.2762 7.94649 11.2762 8.51461 11.6161 8.85548C11.7924 9.0321 12.019 9.1206 12.2457 9.1206C12.4725 9.1206 12.699 9.03223 12.8753 8.85548L14.3612 7.36561L15.8469 8.85548C16.0232 9.0321 16.25 9.1206 16.4765 9.1206C16.7033 9.1206 16.93 9.03223 17.1061 8.85548C17.4462 8.51461 17.4462 7.94649 17.1061 7.60561L15.5951 6.11587L17.0811 4.62613C17.4209 4.28526 17.4209 3.71713 17.0809 3.37626Z" fill="black"/>
<path fill-rule="evenodd" clip-rule="evenodd" d="M8.30324 12.2534C8.58216 12.1226 8.76039 11.8424 8.76039 11.5339L8.76058 0.795504C8.76058 0.487223 8.58216 0.206797 8.30343 0.0759947C8.0247 -0.0557491 7.69534 -0.0137792 7.45783 0.183084L3.11066 3.78533H0.795168C0.356084 3.78533 0 4.14142 0 4.58069V7.74875C0 8.18783 0.356084 8.54411 0.795168 8.54373H3.11047L7.45764 12.146C7.60312 12.2666 7.78323 12.3291 7.96504 12.3291C8.07984 12.3291 8.1954 12.3044 8.30324 12.2534Z" fill="black"/>
</svg>
