<svg width="18" height="14" viewBox="0 0 18 14" fill="none" xmlns="http://www.w3.org/2000/svg">
<path d="M8.76039 12.4133C8.76039 12.7218 8.58216 13.002 8.30324 13.1328C8.1954 13.1838 8.07984 13.2085 7.96504 13.2085C7.78323 13.2085 7.60312 13.146 7.45764 13.0254L3.11047 9.42313H0.795168C0.356084 9.4235 0 9.06723 0 8.62815V5.46008C0 5.02081 0.356084 4.66473 0.795168 4.66473H3.11066L7.45783 1.06248C7.69534 0.865616 8.0247 0.823646 8.30343 0.95539C8.58216 1.08619 8.76058 1.36662 8.76058 1.6749L8.76039 12.4133ZM11.8163 11.1708C11.7969 11.1721 11.7783 11.1729 11.7591 11.1729C11.549 11.1729 11.3465 11.0899 11.1969 10.9401L11.0906 10.8333C10.8116 10.555 10.7789 10.114 11.0138 9.79747C11.6093 8.99458 11.9236 8.04283 11.9236 7.0444C11.9236 5.9705 11.5667 4.96322 10.8914 4.13136C10.6344 3.81517 10.6581 3.35595 10.9462 3.06799L11.0524 2.96166C11.2112 2.80281 11.4241 2.71624 11.6544 2.72998C11.8788 2.74127 12.0882 2.84685 12.2305 3.02076C13.1672 4.16693 13.662 5.55852 13.662 7.04459C13.662 8.42865 13.2244 9.74609 12.3963 10.8539C12.258 11.0385 12.0465 11.1544 11.8163 11.1708ZM15.1039 13.6282C14.9601 13.7981 14.7521 13.9002 14.5295 13.9096C14.5185 13.9099 14.5074 13.9103 14.4961 13.9103C14.2855 13.9103 14.0834 13.8271 13.9338 13.6775L13.8293 13.5731C13.5374 13.2813 13.5177 12.8148 13.783 12.499C15.0655 10.9737 15.772 9.03674 15.772 7.0444C15.772 4.97207 15.0156 2.97709 13.6426 1.42703C13.3643 1.11235 13.3784 0.636005 13.6746 0.338641L13.7789 0.234187C13.9336 0.0787294 14.1346 -0.00690397 14.3652 0.000436041C14.584 0.00664682 14.7911 0.103384 14.9365 0.267123C16.5961 2.13563 17.5103 4.54277 17.5103 7.0444C17.5106 9.45136 16.656 11.7896 15.1039 13.6282Z" fill="black"/>
</svg>
