<svg width="55" height="91" viewBox="0 0 55 91" fill="none" xmlns="http://www.w3.org/2000/svg">
<g filter="url(#filter0_d)">
<path d="M26.5142 1.31956C26.4438 1.37812 26.3787 1.44303 26.3201 1.51365L4.55028 22.8253C3.85419 23.4705 3.81296 24.5581 4.45817 25.2542C4.77815 25.5994 5.22554 25.7983 5.69618 25.8044L17.154 25.8044L17.154 53.4178C17.154 54.449 17.3832 55.5949 18.2997 55.5949L36.6323 55.5949C37.7948 55.4587 38.7282 54.572 38.9239 53.4178L38.9239 25.8044L49.2358 25.8044C49.9214 25.7878 50.5401 25.3899 50.8399 24.7732L50.8399 24.0857C50.821 23.6069 50.6153 23.1545 50.267 22.8253L28.6117 1.51365C28.086 0.880725 27.1469 0.793876 26.5142 1.31956Z" fill="white"/>
<path d="M16.5811 60.7504C16.5811 61.6996 17.3506 62.4691 18.2998 62.4691L36.6324 62.4691C37.5815 62.4691 38.3511 61.6996 38.3511 60.7504C38.3511 59.8012 37.5815 59.0317 36.6324 59.0317L18.2998 59.0317C17.3504 59.0319 16.5811 59.8012 16.5811 60.7504Z" fill="white"/>
<path d="M16.5811 67.6251C16.5811 68.5743 17.3506 69.3438 18.2998 69.3438L36.6324 69.3438C37.5815 69.3438 38.3511 68.5743 38.3511 67.6251C38.3511 66.6759 37.5815 65.9064 36.6324 65.9064L18.2998 65.9064C17.3504 65.9066 16.5811 66.6759 16.5811 67.6251Z" fill="white"/>
<path d="M16.5811 74.4998C16.5811 75.449 17.3506 76.2186 18.2998 76.2186L36.6324 76.2186C37.5815 76.2186 38.3511 75.449 38.3511 74.4998C38.3511 73.5507 37.5815 72.7811 36.6324 72.7811L18.2998 72.7811C17.3504 72.7813 16.5811 73.5507 16.5811 74.4998Z" fill="white"/>
<path d="M16.5811 81.2813C16.5811 82.2304 17.3506 83 18.2998 83L36.6324 83C37.5815 83 38.3511 82.2304 38.3511 81.2813C38.3511 80.3321 37.5815 79.5625 36.6324 79.5625L18.2998 79.5625C17.3504 79.5628 16.5811 80.3321 16.5811 81.2813Z" fill="white"/>
</g>
<defs>
<filter id="filter0_d" x="0" y="0.975754" width="54.8399" height="90.0242" filterUnits="userSpaceOnUse" color-interpolation-filters="sRGB">
<feFlood flood-opacity="0" result="BackgroundImageFix"/>
<feColorMatrix in="SourceAlpha" type="matrix" values="0 0 0 0 0 0 0 0 0 0 0 0 0 0 0 0 0 0 127 0" result="hardAlpha"/>
<feOffset dy="4"/>
<feGaussianBlur stdDeviation="2"/>
<feComposite in2="hardAlpha" operator="out"/>
<feColorMatrix type="matrix" values="0 0 0 0 0 0 0 0 0 0 0 0 0 0 0 0 0 0 0.25 0"/>
<feBlend mode="normal" in2="BackgroundImageFix" result="effect1_dropShadow"/>
<feBlend mode="normal" in="SourceGraphic" in2="effect1_dropShadow" result="shape"/>
</filter>
</defs>
</svg>
