<svg width="15" height="15" viewBox="0 0 15 15" fill="none" xmlns="http://www.w3.org/2000/svg">
<path d="M5.08883 0.347595H0.664599C0.48992 0.347595 0.348572 0.488944 0.348572 0.663622V5.08786C0.348572 5.26254 0.48992 5.40388 0.664599 5.40388H1.29662C1.4713 5.40388 1.61265 5.26254 1.61265 5.08786V1.61167H5.08883C5.26351 1.61167 5.40486 1.47033 5.40486 1.29565V0.663622C5.40486 0.488944 5.26351 0.347595 5.08883 0.347595Z" fill="black"/>
<path fill-rule="evenodd" clip-rule="evenodd" d="M0.664501 0H5.08873C5.4554 0 5.75238 0.296983 5.75238 0.663646V1.29567C5.75238 1.66233 5.4554 1.95932 5.08873 1.95932H1.96017V5.08788C1.96017 5.45454 1.66319 5.75153 1.29653 5.75153H0.664501C0.297837 5.75153 0.000854492 5.45454 0.000854492 5.08788V0.663646C0.000854492 0.296983 0.297837 0 0.664501 0ZM0.664501 0.347619H5.08873C5.26341 0.347619 5.40476 0.488968 5.40476 0.663646V1.29567C5.40476 1.47035 5.26341 1.6117 5.08873 1.6117H1.61255V5.08788C1.61255 5.26256 1.4712 5.40391 1.29653 5.40391H0.664501C0.489822 5.40391 0.348473 5.26256 0.348473 5.08788V0.663646C0.348473 0.488968 0.489822 0.347619 0.664501 0.347619Z" fill="black"/>
<path d="M13.9365 0.347595H9.51219C9.33752 0.347595 9.19617 0.488944 9.19617 0.663622V1.29565C9.19617 1.47033 9.33752 1.61167 9.51219 1.61167H12.9884V5.08786C12.9884 5.26254 13.1297 5.40388 13.3044 5.40388H13.9364C14.1111 5.40388 14.2525 5.26254 14.2525 5.08786V0.663622C14.2525 0.488944 14.1111 0.347595 13.9365 0.347595Z" fill="black"/>
<path fill-rule="evenodd" clip-rule="evenodd" d="M9.51216 0H13.9364C14.3031 0 14.6 0.297025 14.6 0.663646V5.08788C14.6 5.45454 14.3031 5.75153 13.9364 5.75153H13.3044C12.9377 5.75153 12.6407 5.45454 12.6407 5.08788V1.95932H9.51216C9.1455 1.95932 8.84851 1.66234 8.84851 1.29567V0.663646C8.84851 0.296982 9.1455 0 9.51216 0ZM9.51216 0.347619H13.9364C14.1111 0.347619 14.2524 0.488968 14.2524 0.663646V5.08788C14.2524 5.26256 14.1111 5.40391 13.9364 5.40391H13.3044C13.1297 5.40391 12.9883 5.26256 12.9883 5.08788V1.6117H9.51216C9.33748 1.6117 9.19613 1.47035 9.19613 1.29567V0.663646C9.19613 0.488968 9.33748 0.347619 9.51216 0.347619Z" fill="black"/>
<path d="M13.9365 9.19614H13.3044C13.1298 9.19614 12.9884 9.33749 12.9884 9.51216V12.9883H9.51219C9.33752 12.9883 9.19617 13.1297 9.19617 13.3044V13.9364C9.19617 14.1111 9.33752 14.2524 9.51219 14.2524H13.9364C14.1111 14.2524 14.2525 14.1111 14.2525 13.9364V9.51213C14.2525 9.33746 14.1111 9.19614 13.9365 9.19614Z" fill="black"/>
<path fill-rule="evenodd" clip-rule="evenodd" d="M13.3044 8.84851H13.9364C14.3031 8.84851 14.6 9.14546 14.6 9.51213V13.9364C14.6 14.3031 14.3031 14.6 13.9364 14.6H9.51216C9.14549 14.6 8.84851 14.3031 8.84851 13.9364V13.3044C8.84851 12.9377 9.14549 12.6407 9.51216 12.6407H12.6407V9.51216C12.6407 9.14549 12.9377 8.84851 13.3044 8.84851ZM13.3044 9.19613H13.9364C14.1111 9.19613 14.2524 9.33745 14.2524 9.51213V13.9364C14.2524 14.1111 14.1111 14.2524 13.9364 14.2524H9.51216C9.33748 14.2524 9.19613 14.1111 9.19613 13.9364V13.3044C9.19613 13.1297 9.33748 12.9883 9.51216 12.9883H12.9884V9.51216C12.9884 9.33748 13.1297 9.19613 13.3044 9.19613Z" fill="black"/>
<path d="M5.08786 12.9883H1.61167V9.51213C1.61167 9.33746 1.47033 9.19611 1.29565 9.19611H0.663622C0.488944 9.19614 0.347595 9.33746 0.347595 9.51213V13.9364C0.347595 14.111 0.488944 14.2524 0.663622 14.2524H5.08786C5.26254 14.2524 5.40388 14.111 5.40388 13.9364V13.3043C5.40388 13.1297 5.26254 12.9883 5.08786 12.9883Z" fill="black"/>
<path fill-rule="evenodd" clip-rule="evenodd" d="M0.663646 9.1961H1.29567C1.47035 9.1961 1.6117 9.33745 1.6117 9.51213V12.9883H5.08788C5.26256 12.9883 5.40391 13.1297 5.40391 13.3043V13.9364C5.40391 14.111 5.26256 14.2524 5.08788 14.2524H0.663646C0.488968 14.2524 0.347619 14.111 0.347619 13.9364V9.51213C0.347619 9.33745 0.488968 9.19613 0.663646 9.1961ZM1.95932 12.6407H5.08788C5.45452 12.6407 5.75153 12.9377 5.75153 13.3043V13.9364C5.75153 14.303 5.45454 14.6 5.08788 14.6H0.663646C0.296982 14.6 0 14.303 0 13.9364V9.51213C0 9.14541 0.297023 8.84854 0.663587 8.84848H1.29567C1.66234 8.84848 1.95932 9.14546 1.95932 9.51213V12.6407Z" fill="black"/>
</svg>
