<svg width="32" height="31" viewBox="0 0 32 31" fill="none" xmlns="http://www.w3.org/2000/svg">
<g filter="url(#filter0_d)">
<path d="M26.7886 10.0039C26.7881 10.0034 26.7875 10.0028 26.787 10.0023L17.4048 0.620484C17.0049 0.220398 16.4732 0 15.9077 0C15.3421 0 14.8104 0.220223 14.4103 0.620308L5.03306 9.9974C5.0299 10.0006 5.02674 10.0039 5.02358 10.0071C4.20236 10.833 4.20376 12.1731 5.02762 12.997C5.40402 13.3736 5.90114 13.5917 6.43266 13.6145C6.45424 13.6166 6.476 13.6177 6.49793 13.6177H6.87187V20.5221C6.87187 21.8884 7.98352 23 9.35012 23H13.0207C13.3927 23 13.6946 22.6984 13.6946 22.3262V16.9131C13.6946 16.2896 14.2017 15.7825 14.8252 15.7825H16.9902C17.6136 15.7825 18.1208 16.2896 18.1208 16.9131V22.3262C18.1208 22.6984 18.4224 23 18.7946 23H22.4652C23.8318 23 24.9435 21.8884 24.9435 20.5221V13.6177H25.2902C25.8556 13.6177 26.3873 13.3974 26.7875 12.9973C27.6123 12.1721 27.6126 10.8297 26.7886 10.0039Z" fill="white"/>
</g>
<defs>
<filter id="filter0_d" x="0.408691" y="0" width="30.9977" height="31" filterUnits="userSpaceOnUse" color-interpolation-filters="sRGB">
<feFlood flood-opacity="0" result="BackgroundImageFix"/>
<feColorMatrix in="SourceAlpha" type="matrix" values="0 0 0 0 0 0 0 0 0 0 0 0 0 0 0 0 0 0 127 0" result="hardAlpha"/>
<feOffset dy="4"/>
<feGaussianBlur stdDeviation="2"/>
<feComposite in2="hardAlpha" operator="out"/>
<feColorMatrix type="matrix" values="0 0 0 0 0 0 0 0 0 0 0 0 0 0 0 0 0 0 0.25 0"/>
<feBlend mode="normal" in2="BackgroundImageFix" result="effect1_dropShadow"/>
<feBlend mode="normal" in="SourceGraphic" in2="effect1_dropShadow" result="shape"/>
</filter>
</defs>
</svg>
