{"asset":{"version":"2.0","generator":"babylon.js glTF exporter for Autodesk Maya 2019.3.1 v20210607.3"},"scene":0,"scenes":[{"nodes":[0]}],"nodes":[{"children":[1],"name":"Block_in"},{"children":[2,5,6,7,8,9,10],"name":"V2"},{"children":[3,4],"name":"Path"},{"mesh":0,"name":"polySurface6"},{"mesh":1,"name":"polySurface3"},{"mesh":2,"name":"Floor"},{"mesh":3,"name":"Wall_Right"},{"mesh":4,"name":"Wall_Left"},{"mesh":5,"name":"WoodPlanks1"},{"mesh":6,"name":"Bridge"},{"mesh":7,"name":"Gittertuer"}],"meshes":[{"primitives":[{"attributes":{"POSITION":1,"TANGENT":2,"NORMAL":3,"TEXCOORD_0":4},"indices":0,"material":0}],"name":"polySurface6"},{"primitives":[{"attributes":{"POSITION":6,"TANGENT":7,"NORMAL":8,"TEXCOORD_0":9},"indices":5,"material":1}],"name":"polySurface3"},{"primitives":[{"attributes":{"POSITION":11,"TANGENT":12,"NORMAL":13,"TEXCOORD_0":14},"indices":10,"material":2}],"name":"Floor"},{"primitives":[{"attributes":{"POSITION":16,"TANGENT":17,"NORMAL":18,"TEXCOORD_0":19},"indices":15,"material":2}],"name":"Wall_Right"},{"primitives":[{"attributes":{"POSITION":21,"TANGENT":22,"NORMAL":23,"TEXCOORD_0":24},"indices":20,"material":3}],"name":"Wall_Left"},{"primitives":[{"attributes":{"POSITION":26,"TANGENT":27,"NORMAL":28,"TEXCOORD_0":29},"indices":25,"material":4}],"name":"WoodPlanks1"},{"primitives":[{"attributes":{"POSITION":31,"TANGENT":32,"NORMAL":33,"TEXCOORD_0":34},"indices":30,"material":5}],"name":"Bridge"},{"primitives":[{"attributes":{"POSITION":36,"TANGENT":37,"NORMAL":38,"TEXCOORD_0":39},"indices":35,"material":2}],"name":"Gittertuer"}],"accessors":[{"bufferView":0,"componentType":5123,"count":126,"type":"SCALAR","name":"accessorIndices"},{"bufferView":1,"componentType":5126,"count":54,"max":[6.632094,6.681065,-49.80319],"min":[-2.36091113,6.428489,-65.41415],"type":"VEC3","name":"accessorPositions"},{"bufferView":2,"componentType":5126,"count":54,"type":"VEC4","name":"accessorTangents"},{"bufferView":1,"byteOffset":648,"componentType":5126,"count":54,"type":"VEC3","name":"accessorNormals"},{"bufferView":3,"componentType":5126,"count":54,"type":"VEC2","name":"accessorUVs"},{"bufferView":0,"byteOffset":252,"componentType":5123,"count":1740,"type":"SCALAR","name":"accessorIndices"},{"bufferView":1,"byteOffset":1296,"componentType":5126,"count":634,"max":[15.86671,7.550382,6.846887],"min":[-4.28452635,6.428489,-51.74353],"type":"VEC3","name":"accessorPositions"},{"bufferView":2,"byteOffset":864,"componentType":5126,"count":634,"type":"VEC4","name":"accessorTangents"},{"bufferView":1,"byteOffset":8904,"componentType":5126,"count":634,"type":"VEC3","name":"accessorNormals"},{"bufferView":3,"byteOffset":432,"componentType":5126,"count":634,"type":"VEC2","name":"accessorUVs"},{"bufferView":0,"byteOffset":3732,"componentType":5123,"count":660,"type":"SCALAR","name":"accessorIndices"},{"bufferView":1,"byteOffset":16512,"componentType":5126,"count":432,"max":[11.2431831,7.8317275,9.623636],"min":[-8.922786,0.6115941,-64.74558],"type":"VEC3","name":"accessorPositions"},{"bufferView":2,"byteOffset":11008,"componentType":5126,"count":432,"type":"VEC4","name":"accessorTangents"},{"bufferView":1,"byteOffset":21696,"componentType":5126,"count":432,"type":"VEC3","name":"accessorNormals"},{"bufferView":3,"byteOffset":5504,"componentType":5126,"count":432,"type":"VEC2","name":"accessorUVs"},{"bufferView":0,"byteOffset":5052,"componentType":5123,"count":4986,"type":"SCALAR","name":"accessorIndices"},{"bufferView":1,"byteOffset":26880,"componentType":5126,"count":3316,"max":[15.91494,28.4763126,9.628745],"min":[-11.9321575,6.37740231,-64.9078],"type":"VEC3","name":"accessorPositions"},{"bufferView":2,"byteOffset":17920,"componentType":5126,"count":3316,"type":"VEC4","name":"accessorTangents"},{"bufferView":1,"byteOffset":66672,"componentType":5126,"count":3316,"type":"VEC3","name":"accessorNormals"},{"bufferView":3,"byteOffset":8960,"componentType":5126,"count":3316,"type":"VEC2","name":"accessorUVs"},{"bufferView":0,"byteOffset":15024,"componentType":5123,"count":1920,"type":"SCALAR","name":"accessorIndices"},{"bufferView":1,"byteOffset":106464,"componentType":5126,"count":1226,"max":[5.75454569,29.9004421,11.9866066],"min":[-23.7469559,-0.7284396,-67.7476349],"type":"VEC3","name":"accessorPositions"},{"bufferView":2,"byteOffset":70976,"componentType":5126,"count":1226,"type":"VEC4","name":"accessorTangents"},{"bufferView":1,"byteOffset":121176,"componentType":5126,"count":1226,"type":"VEC3","name":"accessorNormals"},{"bufferView":3,"byteOffset":35488,"componentType":5126,"count":1226,"type":"VEC2","name":"accessorUVs"},{"bufferView":0,"byteOffset":18864,"componentType":5123,"count":216,"type":"SCALAR","name":"accessorIndices"},{"bufferView":1,"byteOffset":135888,"componentType":5126,"count":144,"max":[7.43571234,6.666372,7.768502],"min":[5.40123463,6.608656,5.7892313],"type":"VEC3","name":"accessorPositions"},{"bufferView":2,"byteOffset":90592,"componentType":5126,"count":144,"type":"VEC4","name":"accessorTangents"},{"bufferView":1,"byteOffset":137616,"componentType":5126,"count":144,"type":"VEC3","name":"accessorNormals"},{"bufferView":3,"byteOffset":45296,"componentType":5126,"count":144,"type":"VEC2","name":"accessorUVs"},{"bufferView":0,"byteOffset":19296,"componentType":5123,"count":1338,"type":"SCALAR","name":"accessorIndices"},{"bufferView":1,"byteOffset":139344,"componentType":5126,"count":874,"max":[5.35288572,7.79033041,-42.6116867],"min":[-0.876307368,1.38337374,-51.550663],"type":"VEC3","name":"accessorPositions"},{"bufferView":2,"byteOffset":92896,"componentType":5126,"count":874,"type":"VEC4","name":"accessorTangents"},{"bufferView":1,"byteOffset":149832,"componentType":5126,"count":874,"type":"VEC3","name":"accessorNormals"},{"bufferView":3,"byteOffset":46448,"componentType":5126,"count":874,"type":"VEC2","name":"accessorUVs"},{"bufferView":0,"byteOffset":21972,"componentType":5123,"count":2658,"type":"SCALAR","name":"accessorIndices"},{"bufferView":1,"byteOffset":160320,"componentType":5126,"count":1650,"max":[12.386467,8.858288,-44.0963173],"min":[9.553772,6.40124559,-49.24493],"type":"VEC3","name":"accessorPositions"},{"bufferView":2,"byteOffset":106880,"componentType":5126,"count":1650,"type":"VEC4","name":"accessorTangents"},{"bufferView":1,"byteOffset":180120,"componentType":5126,"count":1650,"type":"VEC3","name":"accessorNormals"},{"bufferView":3,"byteOffset":53440,"componentType":5126,"count":1650,"type":"VEC2","name":"accessorUVs"}],"bufferViews":[{"buffer":0,"byteLength":27288,"name":"bufferViewScalar"},{"buffer":0,"byteOffset":27288,"byteLength":199920,"byteStride":12,"name":"bufferViewFloatVec3"},{"buffer":0,"byteOffset":227208,"byteLength":133280,"byteStride":16,"name":"bufferViewFloatVec4"},{"buffer":0,"byteOffset":360488,"byteLength":66640,"byteStride":8,"name":"bufferViewFloatVec2"}],"buffers":[{"uri":"Tamina_Export_Textures.bin","byteLength":427128}],"materials":[{"pbrMetallicRoughness":{"baseColorTexture":{"index":0},"metallicFactor":0.0,"roughnessFactor":0.450053632},"name":"lambert8"},{"pbrMetallicRoughness":{"baseColorTexture":{"index":0},"metallicFactor":0.0,"roughnessFactor":0.450053632},"name":"lambert5"},{"pbrMetallicRoughness":{"baseColorTexture":{"index":1},"metallicFactor":0.0,"roughnessFactor":0.450053632},"name":"lambert1"},{"pbrMetallicRoughness":{"baseColorTexture":{"index":1},"metallicFactor":0.0,"roughnessFactor":0.450053632},"name":"lambert4"},{"pbrMetallicRoughness":{"baseColorTexture":{"index":0},"metallicFactor":0.0,"roughnessFactor":0.450053632},"name":"lambert6"},{"pbrMetallicRoughness":{"baseColorTexture":{"index":0},"metallicFactor":0.0,"roughnessFactor":0.450053632},"name":"lambert7"}],"textures":[{"sampler":0,"source":0,"name":"c37249cb860d95a9a5139137b52cc97f.png"},{"sampler":0,"source":1,"name":"Wall_left_lowpoly_BaseColor.png"}],"images":[{"uri":"c37249cb860d95a9a5139137b52cc97f.png"},{"uri":"Wall_left_lowpoly_BaseColor.png"}],"samplers":[{"magFilter":9729,"minFilter":9987}]}