<svg width="253" height="39" viewBox="0 0 253 39" fill="none" xmlns="http://www.w3.org/2000/svg">
<path d="M36.2167 5.4567C35.4157 4.24788 34.3801 3.21227 33.1713 2.4113C31.8105 1.50997 30.1864 1.0593 27.9565 0.833969C25.7266 0.608636 22.8928 0.608643 19.1148 0.608643C11.5569 0.608643 7.77798 0.608641 5.05741 2.4113C3.84859 3.21227 2.81297 4.24788 2.01201 5.4567C0.208373 8.17728 0.208374 11.9562 0.208374 19.5141C0.208374 27.072 0.208373 30.85 2.01201 33.5706C2.81297 34.7794 3.84859 35.815 5.05741 36.616C6.41721 37.5173 8.04233 37.969 10.2722 38.1943C12.5022 38.4196 15.3359 38.4196 19.1148 38.4196C26.6718 38.4196 30.4507 38.4196 33.1713 36.616C34.3801 35.815 35.4157 34.7794 36.2167 33.5706C37.119 32.2108 37.5697 30.5857 37.795 28.3558C38.0204 26.1258 38.0203 23.2931 38.0203 19.5141C38.0203 11.9562 38.0203 8.17728 36.2167 5.4567ZM29.8421 21.9352C29.8464 22.0349 29.8305 22.1345 29.7952 22.2279C29.7612 22.3212 29.7084 22.4065 29.6401 22.4786C29.568 22.5466 29.4831 22.5997 29.3904 22.6347C29.2976 22.6697 29.1988 22.6859 29.0997 22.6824H29.0509C28.8308 22.671 28.6136 22.6273 28.4062 22.5527C28.0975 22.445 27.7972 22.3146 27.5078 22.1625L27.301 22.0543L27.0181 21.9001L26.6591 21.6933L26.5138 21.6085C25.0993 20.7783 23.5747 19.7551 22.647 19.7365C22.5404 19.7269 22.433 19.7402 22.3319 19.7756C22.2306 19.8108 22.1379 19.867 22.0598 19.9404C21.9822 20.0245 21.9237 20.1243 21.8881 20.2331C21.8537 20.3434 21.8434 20.4598 21.8579 20.5745C21.8578 20.6072 21.8611 20.6399 21.8676 20.672C21.8746 20.7065 21.8795 20.7413 21.8822 20.7764C21.8807 20.7954 21.8848 20.8143 21.8939 20.831C21.9055 20.867 21.914 20.9039 21.9193 20.9412L21.9486 21.0534C21.9583 21.0924 21.9622 21.0934 21.9671 21.1139C21.972 21.1344 21.9915 21.1919 22.0071 21.231L22.0744 21.4153L22.1837 21.6709C22.2139 21.7362 22.2432 21.8026 22.2812 21.866C22.3192 21.9294 22.3241 21.9557 22.3475 21.9996C22.371 22.0435 22.3924 22.0913 22.4168 22.1381C22.4302 22.1605 22.4422 22.1836 22.4529 22.2074L22.528 22.3469L22.6051 22.4883C22.6304 22.5361 22.6587 22.5859 22.685 22.6307C22.7114 22.6756 22.766 22.7751 22.8089 22.8483C22.8519 22.9214 22.8636 22.9458 22.8928 22.9946C23.7317 24.4334 24.7804 26 24.7999 26.9452V27.0428C24.7977 27.087 24.7922 27.1311 24.7833 27.1745C24.7598 27.3112 24.6955 27.4377 24.5989 27.5373C24.507 27.619 24.3979 27.6789 24.2797 27.7127C24.1615 27.7465 24.0372 27.7532 23.9161 27.7324C23.8831 27.7339 23.8501 27.7296 23.8185 27.7198C23.7627 27.7131 23.7073 27.703 23.6527 27.6895L23.5425 27.6612C23.484 27.6466 23.4264 27.6281 23.3688 27.6085C23.3113 27.589 23.203 27.552 23.125 27.5188L22.9991 27.4671C22.8938 27.4213 22.7846 27.3696 22.6685 27.3179L22.5329 27.2496C20.8746 26.4204 18.7715 24.8109 17.6038 24.7885C17.4972 24.7798 17.3899 24.7934 17.2888 24.8285C17.1877 24.8641 17.0951 24.9203 17.0166 24.9933C17.0027 25.0065 16.99 25.0208 16.9786 25.0362C16.9656 25.0499 16.9542 25.065 16.9444 25.0811C16.9231 25.1121 16.9042 25.1447 16.8879 25.1787C16.8793 25.1953 16.8721 25.2126 16.8664 25.2304C16.853 25.2655 16.8426 25.3018 16.8352 25.3386C16.8267 25.3785 16.8212 25.4189 16.8186 25.4596V25.6547C16.8197 25.6779 16.8223 25.7011 16.8264 25.724C16.8246 25.7497 16.8279 25.7756 16.8362 25.8C16.8469 25.8254 16.8362 25.8469 16.8498 25.8703C16.8532 25.8937 16.8581 25.9168 16.8645 25.9395C16.8671 25.9661 16.8741 25.9922 16.8849 26.0166C16.8969 26.0727 16.9122 26.1281 16.9308 26.1824C16.9396 26.2107 16.9474 26.2371 16.9571 26.2634C16.9669 26.2897 16.9757 26.32 16.9874 26.3483L17.0186 26.4331C17.0303 26.4614 17.04 26.4887 17.0537 26.519C17.0673 26.5492 17.0751 26.5726 17.0859 26.5989C17.1629 26.7784 17.2498 26.9638 17.3493 27.1559L17.4419 27.3325C17.5297 27.4983 17.6243 27.6642 17.7229 27.8388L17.7794 27.9363C17.9287 28.1919 18.0838 28.4543 18.2408 28.7167L18.2857 28.7918L18.5071 29.1634L18.5949 29.3107C18.6661 29.4337 18.7383 29.5556 18.8085 29.6775L18.8905 29.8219C19.0329 30.0716 19.1656 30.3203 19.2807 30.5506C19.3448 30.6823 19.3697 30.8296 19.3524 30.9751C19.3351 31.1205 19.2763 31.2579 19.1831 31.3709C19.0897 31.4832 18.9657 31.5658 18.8261 31.6089C18.6865 31.6518 18.5376 31.6539 18.3969 31.6148C14.5482 30.4992 11.2449 28.0056 9.1173 24.61C9.0879 24.5619 9.07026 24.5076 9.06582 24.4514C9.06138 24.3952 9.07026 24.3388 9.09174 24.2867C9.11323 24.2346 9.14671 24.1883 9.18946 24.1516C9.23221 24.1149 9.28301 24.0888 9.33775 24.0754C9.41102 24.058 9.48792 24.0645 9.55723 24.0939L9.60405 24.1115C9.66648 24.1378 9.72989 24.1632 9.7894 24.1847L9.84987 24.2061L9.90938 24.2276L10.0274 24.2647L10.1103 24.2881C10.1745 24.3059 10.2397 24.3202 10.3054 24.331H10.5922C10.6376 24.3311 10.6829 24.3279 10.7278 24.3212L10.7736 24.3125H10.8117C10.8391 24.3059 10.8662 24.2978 10.8926 24.2881C10.917 24.2796 10.9408 24.2695 10.9639 24.2578L11.0009 24.2393C11.014 24.2312 11.0267 24.2224 11.039 24.213L11.0682 24.1934C11.0899 24.1762 11.1104 24.1577 11.1297 24.1378C11.2273 24.0386 11.2926 23.9121 11.317 23.775C11.3238 23.7311 11.3287 23.6882 11.3316 23.6433C11.3326 23.628 11.3326 23.6127 11.3316 23.5974V23.5711C11.2965 21.9674 8.30766 18.5835 8.39252 17.0501C8.39456 17.0055 8.40011 16.9612 8.40911 16.9174L8.42861 16.8345C8.45971 16.7289 8.51672 16.6326 8.59445 16.5546C8.66465 16.4896 8.74681 16.4389 8.83636 16.4053C8.92978 16.3702 9.02925 16.3539 9.129 16.3575H9.22655C9.45266 16.377 9.67512 16.4269 9.88792 16.5058L10.0694 16.5751L10.1952 16.6268L10.3249 16.6833L10.52 16.7809L10.6556 16.8472L10.7912 16.9184L10.8614 16.9535L11 17.0287L11.1424 17.1057L11.2848 17.1857L11.5013 17.3106L11.6447 17.3954C13.0806 18.2382 14.6423 19.2898 15.5846 19.3103H15.6822C15.7261 19.3085 15.7698 19.3033 15.8129 19.2947C15.95 19.2711 16.0764 19.2057 16.1748 19.1074C16.2579 19.0154 16.319 18.9056 16.3533 18.7864C16.3874 18.6669 16.3944 18.5413 16.3738 18.4187C16.3752 18.3856 16.3706 18.3526 16.3601 18.3211C16.3475 18.2841 16.3426 18.2168 16.3309 18.1553C16.3234 18.1178 16.3139 18.0807 16.3026 18.0441C16.2928 18.0051 16.2675 17.929 16.2499 17.8695C16.2236 17.7867 16.193 17.7053 16.1582 17.6256C16.1436 17.5837 16.125 17.5408 16.1075 17.4998L16.0509 17.3701C16.0216 17.3057 15.9914 17.2384 15.9534 17.175C15.9153 17.1116 15.9104 17.0862 15.887 17.0413C15.808 16.8814 15.7222 16.7194 15.6295 16.5536C15.6041 16.5058 15.5768 16.4561 15.5505 16.4112C15.5105 16.338 15.4685 16.2668 15.4276 16.1936C15.3866 16.1205 15.371 16.0961 15.3417 16.0483C14.8452 15.1928 14.2687 14.2925 13.8864 13.5121L13.822 13.3775L13.7917 13.3112C13.7508 13.2234 13.7137 13.1365 13.6776 13.0536L13.6279 12.9288L13.6064 12.8673C13.583 12.8068 13.5635 12.7464 13.5449 12.6888C13.4923 12.5268 13.457 12.3598 13.4396 12.1903V12.0928C13.4309 11.9865 13.4445 11.8796 13.4795 11.7788C13.5144 11.678 13.5699 11.5857 13.6425 11.5075C14.9028 10.2394 19.9596 15.3118 21.2218 14.0437L21.2531 14.0106L21.2716 13.9891L21.2833 13.9706C21.2902 13.9636 21.2961 13.9557 21.3009 13.9472C21.3176 13.9236 21.332 13.8984 21.3438 13.872L21.3594 13.8428L21.374 13.8028C21.3773 13.7855 21.3829 13.7688 21.3906 13.753C21.3906 13.7365 21.4023 13.7101 21.4072 13.6896C21.4096 13.6722 21.4096 13.6544 21.4072 13.637C21.4091 13.6149 21.4091 13.5927 21.4072 13.5706V13.517C21.4091 13.489 21.4091 13.461 21.4072 13.4331V13.3833C21.4042 13.3343 21.3986 13.2855 21.3906 13.237C21.3927 13.2112 21.388 13.1853 21.377 13.1619C21.2973 12.8139 21.1757 12.4769 21.0151 12.1581L20.9702 12.0606C20.9556 12.0304 20.9409 11.9991 20.9243 11.9631C20.7439 11.6021 20.5254 11.2168 20.2942 10.8237L20.1186 10.5311L20.0211 10.3652L19.944 10.2375L19.8825 10.1341L19.785 9.96823C19.706 9.83557 19.6192 9.70291 19.548 9.57025C19.5333 9.54488 19.5206 9.5205 19.505 9.49709L19.3402 9.20445C19.3138 9.15665 19.2875 9.10689 19.2592 9.06007C19.2056 8.96252 19.1548 8.87278 19.1051 8.78011V8.7684C19.0739 8.71183 19.0436 8.6533 19.0153 8.60258L18.9578 8.48649C18.8931 8.35444 18.8678 8.20651 18.8851 8.06046C18.9025 7.91442 18.9615 7.77648 19.0553 7.66321C19.1488 7.55033 19.2731 7.46701 19.413 7.42338C19.5529 7.37974 19.7024 7.37766 19.8435 7.41739C23.2339 8.39669 26.213 10.4537 28.3301 13.277C28.6103 13.6477 28.8734 14.0301 29.1192 14.4242C29.1593 14.4879 29.1777 14.5628 29.1719 14.6378C29.1663 14.713 29.1369 14.7844 29.0879 14.8417C29.039 14.8991 28.9731 14.9394 28.8997 14.9568C28.8268 14.9741 28.7502 14.9676 28.6812 14.9382L28.6334 14.9197L28.6149 14.9119C28.5946 14.9023 28.5737 14.8938 28.5525 14.8865L28.5096 14.869L28.3271 14.8036C28.2481 14.7773 28.172 14.7539 28.0969 14.7363L28.0423 14.7227C27.9879 14.7097 27.9329 14.6996 27.8774 14.6924H27.8306C27.7524 14.6815 27.6734 14.6779 27.5946 14.6817H27.5048C27.4752 14.6845 27.4458 14.6897 27.417 14.6973L27.3761 14.708C27.2954 14.7314 27.2197 14.7695 27.1527 14.8202C27.1297 14.8372 27.1081 14.8562 27.0883 14.8768C27.0158 14.955 26.9603 15.0474 26.9252 15.1481C26.8901 15.2488 26.8762 15.3557 26.8844 15.462V15.5596C26.9013 15.7288 26.937 15.8957 26.9908 16.0571C27.0093 16.1156 27.0288 16.1751 27.0503 16.2366C27.0581 16.2561 27.0649 16.2775 27.0737 16.298L27.1234 16.4219C27.1576 16.5068 27.1956 16.5877 27.2356 16.6794C27.2454 16.7029 27.2571 16.7243 27.2668 16.7477L27.3312 16.8804C27.5263 17.2706 27.7643 17.6968 28.014 18.1251C28.2637 18.5533 28.5349 18.9932 28.7827 19.4195L28.8675 19.5658C28.9105 19.638 28.9514 19.7102 28.9914 19.7824L29.0705 19.9258L29.1485 20.0663L29.2226 20.2077L29.2577 20.276L29.329 20.4135C29.3524 20.4584 29.3738 20.5033 29.3953 20.5481L29.4879 20.7432C29.5075 20.7861 29.526 20.8291 29.5436 20.871C29.5611 20.913 29.5787 20.9559 29.5953 20.9968C29.6118 21.0378 29.643 21.1217 29.6645 21.1812C29.7445 21.3943 29.794 21.6176 29.8118 21.8445C29.8212 21.8469 29.8294 21.8527 29.8347 21.8609C29.8399 21.869 29.8419 21.8789 29.8401 21.8884C29.8426 21.9039 29.8433 21.9196 29.8421 21.9352Z" fill="white"/>
<path d="M74.0463 18.4392C74.0463 24.9143 68.6646 29.9594 61.6852 29.9594C56.0928 29.9594 52.2231 26.3014 52.2231 20.6672C52.2231 14.1501 57.6048 9.14691 64.5842 9.14691C70.1785 9.14691 74.0463 12.8049 74.0463 18.4392ZM58.9519 20.6672C58.9519 22.98 60.4239 24.4091 62.4421 24.4091C65.1734 24.4091 67.3195 21.8865 67.3195 18.565C67.3195 16.3371 65.8055 14.8232 63.8292 14.8232C61.1389 14.8232 58.9519 17.3876 58.9519 20.6672Z" fill="white"/>
<path d="M91.2164 23.0639C91.2164 27.0633 87.6423 29.9594 82.3445 29.9594C79.5693 29.9594 76.7522 29.1605 74.8608 27.7315L75.8275 22.1391C77.7618 23.5682 80.1585 24.452 82.2606 24.452C83.8165 24.452 84.5725 23.9467 84.5725 23.1897C84.5725 22.3489 83.9004 22.0133 82.5543 21.8446C78.9811 21.4661 76.2479 19.3639 76.2479 16.0005C76.2479 12.0899 79.8639 9.14691 85.0349 9.14691C87.5165 9.14691 89.7444 9.73219 91.7656 11.0393L90.756 16.5468C88.6539 15.2436 86.5937 14.5705 84.9959 14.5705C83.5249 14.5705 82.7679 15.1177 82.7679 15.8318C82.7679 16.6307 83.4829 17.0511 85.0378 17.2199C88.5251 17.5983 91.2164 19.6166 91.2164 23.0639Z" fill="white"/>
<path d="M103.409 29.9643C97.396 29.9643 93.2756 26.2644 93.2756 20.714C93.2756 13.0624 99.7927 9.15179 106.016 9.15179C108.497 9.15179 110.977 9.78292 112.911 11.0861L111.776 17.5613C109.968 15.7947 107.866 15.0387 105.973 15.0387C102.904 15.0387 100.34 17.014 100.34 20.0838C100.34 22.144 101.769 24.0784 104.797 24.0784C106.772 24.0784 108.959 23.2375 111.271 21.5129L110.09 28.0251C108.412 29.2444 105.931 29.9643 103.409 29.9643Z" fill="white"/>
<path d="M119.128 28.6143L114.382 9.56732H122.202L123.763 21.468H124.016L129.691 9.56732H137.722L121.919 35.9049H114.635L119.128 28.6143Z" fill="white"/>
<path d="M140.057 25.6995C140.057 27.9275 138.333 29.6521 136.062 29.6521C134.255 29.6521 132.91 28.3909 132.91 26.5823C132.91 24.3544 134.633 22.6298 136.903 22.6298C138.754 22.6298 140.057 23.8491 140.057 25.6995Z" fill="white"/>
<path d="M159.924 23.0639C159.924 27.0633 156.35 29.9594 151.048 29.9594C148.272 29.9594 145.455 29.1605 143.563 27.7315L144.531 22.1391C146.465 23.5682 148.861 24.452 150.969 24.452C152.524 24.452 153.28 23.9467 153.28 23.1897C153.28 22.3489 152.608 22.0133 151.262 21.8446C147.689 21.4661 144.956 19.3639 144.956 16.0005C144.956 12.0899 148.572 9.14691 153.743 9.14691C156.223 9.14691 158.452 9.73219 160.474 11.0393L159.464 16.5468C157.362 15.2436 155.302 14.5705 153.704 14.5705C152.233 14.5705 151.476 15.1177 151.476 15.8318C151.476 16.6307 152.191 17.0511 153.746 17.2199C157.233 17.5983 159.924 19.6166 159.924 23.0639Z" fill="white"/>
<path d="M168.114 29.539C167.778 31.5992 167.483 34.5422 167.483 35.8454H160.041L163.615 15.664C163.867 13.9823 164.12 11.5017 164.2 9.56734H171.642L171.056 12.8469H171.477C173.117 10.4501 175.513 9.14691 178.287 9.14691C182.66 9.14691 185.394 12.2167 185.394 17.1779C185.394 24.4091 181.063 29.9565 175.386 29.9565C172.107 29.9565 169.963 28.6952 169.122 26.2566H168.702L168.114 29.539ZM178.331 18.3563C178.331 16.0854 176.943 14.6563 174.841 14.6563C171.94 14.6563 169.543 17.3876 169.543 20.753C169.543 23.0229 170.93 24.4529 173.117 24.4529C175.934 24.452 178.331 21.6348 178.331 18.3563Z" fill="white"/>
<path d="M200.918 26.2575C199.279 28.6542 196.925 29.9574 194.15 29.9574C189.735 29.9574 187.086 26.9335 187.043 21.9264C187.001 14.6953 191.207 9.14783 197.051 9.14783C200.204 9.14783 202.306 10.3672 203.273 12.8478H203.694C203.778 11.6284 203.778 10.9944 203.778 9.56826H211.262L208.865 23.2336C208.499 25.3171 208.288 27.4251 208.234 29.5399H200.751L201.336 26.2604L200.918 26.2575ZM194.066 20.75C194.108 23.0199 195.453 24.45 197.555 24.45C200.498 24.45 202.895 21.6748 202.811 18.3533C202.769 16.0824 201.424 14.6534 199.279 14.6534C196.418 14.6553 194.024 17.4715 194.066 20.752V20.75Z" fill="white"/>
<path d="M221.905 29.9643C215.893 29.9643 211.772 26.2644 211.772 20.714C211.772 13.0624 218.289 9.15179 224.512 9.15179C226.992 9.15179 229.474 9.78292 231.407 11.0861L230.272 17.5613C228.464 15.7947 226.362 15.0387 224.47 15.0387C221.401 15.0387 218.836 17.014 218.836 20.0838C218.836 22.144 220.266 24.0784 223.292 24.0784C225.269 24.0784 227.456 23.2375 229.768 21.5129L228.59 28.03C226.909 29.2444 224.428 29.9643 221.905 29.9643Z" fill="white"/>
<path d="M252.792 16.5029C252.792 18.0168 252.371 19.6985 251.53 21.3802H238.412C238.581 23.9876 240.558 25.1221 243.458 25.1221C245.728 25.1221 248.378 24.45 250.482 23.2687L249.641 28.0192C247.706 29.2386 244.847 29.9536 241.904 29.9536C235.724 29.9536 231.939 26.4643 231.939 20.872C231.939 14.3549 237.195 9.14105 243.965 9.14105C249.218 9.14691 252.792 12.1318 252.792 16.5029ZM243.879 13.6438C241.397 13.6438 239.587 15.4094 239.001 17.5964H246.527C247.368 15.4543 246.401 13.6457 243.879 13.6457V13.6438Z" fill="white"/>
</svg>
