{
  "asset": {
    "version": "2.0",
    "generator": "babylon.js glTF exporter for Autodesk Maya 2018 v20210607.3"
  },
  "scene": 0,
  "scenes": [{ "nodes": [0] }],
  "nodes": [
    { "children": [1], "name": "meshes_fin" },
    {
      "mesh": 0,
      "translation": [0.0, 0.071481064, 0.0],
      "scale": [7.15210247, 7.15210247, 7.15210247],
      "name": "Environment_Path_CM"
    }
  ],
  "meshes": [
    {
      "primitives": [
        {
          "attributes": {
            "POSITION": 1,
            "TANGENT": 2,
            "NORMAL": 3,
            "TEXCOORD_0": 4
          },
          "indices": 0,
          "material": 0
        }
      ],
      "name": "Environment_Path_CM"
    }
  ],
  "accessors": [
    {
      "bufferView": 0,
      "componentType": 5123,
      "count": 4440,
      "type": "SCALAR",
      "name": "accessorIndices"
    },
    {
      "bufferView": 1,
      "componentType": 5126,
      "count": 1334,
      "max": [6.429374, 0.735303462, 0.9077253],
      "min": [-0.3901828, -0.047100503, -5.88388729],
      "type": "VEC3",
      "name": "accessorPositions"
    },
    {
      "bufferView": 2,
      "componentType": 5126,
      "count": 1334,
      "type": "VEC4",
      "name": "accessorTangents"
    },
    {
      "bufferView": 1,
      "byteOffset": 16008,
      "componentType": 5126,
      "count": 1334,
      "type": "VEC3",
      "name": "accessorNormals"
    },
    {
      "bufferView": 3,
      "componentType": 5126,
      "count": 1334,
      "type": "VEC2",
      "name": "accessorUVs"
    }
  ],
  "bufferViews": [
    { "buffer": 0, "byteLength": 8880, "name": "bufferViewScalar" },
    {
      "buffer": 0,
      "byteOffset": 8880,
      "byteLength": 32016,
      "byteStride": 12,
      "name": "bufferViewFloatVec3"
    },
    {
      "buffer": 0,
      "byteOffset": 40896,
      "byteLength": 21344,
      "byteStride": 16,
      "name": "bufferViewFloatVec4"
    },
    {
      "buffer": 0,
      "byteOffset": 62240,
      "byteLength": 10672,
      "byteStride": 8,
      "name": "bufferViewFloatVec2"
    }
  ],
  "buffers": [{ "uri": "EnvironmentPath.bin", "byteLength": 72912 }],
  "materials": [
    {
      "pbrMetallicRoughness": {
        "baseColorFactor": [0.5, 0.5, 0.5, 1.0],
        "metallicFactor": 0.0,
        "roughnessFactor": 0.450053632
      },
      "name": "lambert1"
    }
  ]
}
