{
  "asset": {
    "version": "2.0",
    "generator": "babylon.js glTF exporter for Autodesk Maya 2018 v20210607.3"
  },
  "scene": 0,
  "scenes": [{ "nodes": [0] }],
  "nodes": [
    { "children": [1], "name": "meshes_fin" },
    { "mesh": 0, "name": "Environment_Path_CM" }
  ],
  "meshes": [
    {
      "primitives": [
        {
          "attributes": {
            "POSITION": 1,
            "TANGENT": 2,
            "NORMAL": 3,
            "TEXCOORD_0": 4
          },
          "indices": 0,
          "material": 0
        }
      ],
      "name": "Environment_Path_CM"
    }
  ],
  "accessors": [
    {
      "bufferView": 0,
      "componentType": 5123,
      "count": 5418,
      "type": "SCALAR",
      "name": "accessorIndices"
    },
    {
      "bufferView": 1,
      "componentType": 5126,
      "count": 1622,
      "max": [45.9835434, 5.258966, 6.492144],
      "min": [-2.79062748, -0.33686763, -42.08216],
      "type": "VEC3",
      "name": "accessorPositions"
    },
    {
      "bufferView": 2,
      "componentType": 5126,
      "count": 1622,
      "type": "VEC4",
      "name": "accessorTangents"
    },
    {
      "bufferView": 1,
      "byteOffset": 19464,
      "componentType": 5126,
      "count": 1622,
      "type": "VEC3",
      "name": "accessorNormals"
    },
    {
      "bufferView": 3,
      "componentType": 5126,
      "count": 1622,
      "type": "VEC2",
      "name": "accessorUVs"
    }
  ],
  "bufferViews": [
    { "buffer": 0, "byteLength": 10836, "name": "bufferViewScalar" },
    {
      "buffer": 0,
      "byteOffset": 10836,
      "byteLength": 38928,
      "byteStride": 12,
      "name": "bufferViewFloatVec3"
    },
    {
      "buffer": 0,
      "byteOffset": 49764,
      "byteLength": 25952,
      "byteStride": 16,
      "name": "bufferViewFloatVec4"
    },
    {
      "buffer": 0,
      "byteOffset": 75716,
      "byteLength": 12976,
      "byteStride": 8,
      "name": "bufferViewFloatVec2"
    }
  ],
  "buffers": [{ "uri": "EnvironmentPath.bin", "byteLength": 88692 }],
  "materials": [
    {
      "pbrMetallicRoughness": {
        "baseColorFactor": [0.5, 0.5, 0.5, 1.0],
        "metallicFactor": 0.0,
        "roughnessFactor": 0.450053632
      },
      "name": "lambert1"
    }
  ]
}
